#!OML:ASF F:\VICON\USERDATA\INSTALL\rory3\rory3.ASF
:FULLY-SPECIFIED
:DEGREES
170
root 0.46338392668099365 17.765564397369122 64.79708628874587 -1.394668059812765 0.28295543787872457 -2.1102226315727575
lfemur -11.04870231340593 -2.4667496715091093 -17.729682836221514
ltibia 34.70786791959915
lfoot 3.924107693386615 -1.309484957490436
ltoes -4.060167938717246
rfemur -14.82065481594287 3.867167393323923 25.374888432830115
rtibia 39.94665383159231
rfoot -9.742460064559658 -9.832799338043099
rtoes 5.181721494383353
lowerback 10.705461183531888 -0.38025017770268055 1.4174910873164246
upperback -0.31407155445881163 -0.2373340231569801 2.047562046907557
thorax -5.936436722664875 -0.2021055877058449 1.4703322148387445
lowerneck -16.063906126394258 -3.111129029419311 -3.4473532487439904
upperneck 22.079953340336637 -3.8193285209308296 1.638440540649953
head 9.661253660415763 -1.847740669655793 0.6930923030724052
lclavicle -2.0253968087165414e-15 -7.110729732510117e-16
lhumerus -30.53461833493057 0.4161864108404627 80.86655595232831
lradius 29.013123094058706
lwrist 7.032283957925435
lhand -29.943688223345617 19.214716440496314
lfingers 7.12502
lthumb -2.972254284541354 49.142892691082274
rclavicle -2.0273900491464556e-15 -7.123290471843648e-16
rhumerus -28.93600180691613 -21.1276817982185 -75.60313113720674
rradius 21.355071023048936
rwrist 6.587340890187905
rhand -17.618871150020485 22.010703151420664
rfingers 7.12502
rthumb 7.988041085467776 -7.723820316282101
171
root 0.45857127092913214 17.758414593799557 64.77397541628594 -1.206797909130804 0.15441362146565502 -2.2556203636452388
lfemur -12.038141898374821 -2.4817608938373072 -17.480308657297822
ltibia 33.60519135286845
lfoot 3.282226119408321 -0.48070292677281357
ltoes -4.377923960357447
rfemur -14.949379474548204 3.7010474260698274 25.606386987128406
rtibia 40.20583395181787
rfoot -9.80517462496377 -9.861768910303336
rtoes 4.504387372221563
lowerback 10.663989518837719 -0.29017613022364486 1.5666261407662185
upperback -0.3377233135008947 -0.08579099527233941 2.066351196541646
thorax -5.950883255109618 -0.1254690749700672 1.3335869679979035
lowerneck -16.076978319800954 -3.1285748012791927 -3.437372248812815
upperneck 22.083677099932345 -3.851530448768081 1.7059777926992232
head 9.667634787825675 -1.8568016750480276 0.7115202849879578
lclavicle -2.025334405371196e-15 -7.110337583899914e-16
lhumerus -30.503563445465566 0.22864183640938185 80.84274679975414
lradius 29.42336525924549
lwrist 6.810660132245335
lhand -29.745188609282412 19.37454566724286
lfingers 7.12502
lthumb -2.755259434081814 49.307884567299624
rclavicle -2.0274706935112282e-15 -7.123805452818355e-16
rhumerus -28.9058789466846 -21.07098175158468 -75.66953772158193
rradius 21.24719160218643
rwrist 6.519312956364886
rhand -17.613419998265 22.04301462307464
rfingers 7.12502
rthumb 8.01581568643807 -7.723245066438398
172
root 0.4553376585985559 17.761747832574233 64.63065307070812 -1.0056148453085334 0.06323495047980554 -2.204561688831252
lfemur -12.904099235748893 -2.549265468563721 -17.494420729214788
ltibia 32.45744346513326
lfoot 2.8231357325096926 0.21145609103916296
ltoes -5.353567692375161
rfemur -15.19021857914246 3.485076046149563 25.59231697454728
rtibia 40.30953745628835
rfoot -9.479405654451066 -9.711426740680398
rtoes 3.6064370694826513
lowerback 10.588000460902736 -0.22466829867067148 1.5843352713004162
upperback -0.384968583515755 0.0005918017163873412 2.0486215100222664
thorax -5.9530182430600025 -0.08028332587095371 1.234088589787009
lowerneck -16.092767343132955 -3.133473337060804 -3.415505553442944
upperneck 22.091014807112057 -3.869665213836469 1.7262670628748398
head 9.671985323935791 -1.862530255545686 0.7170121954231261
lclavicle -2.0250720934686214e-15 -7.108650712250341e-16
lhumerus -30.575736228802164 0.1632363709454423 80.77428335339835
lradius 29.800534950218342
lwrist 6.654155788221729
lhand -29.53455755958501 19.54144790120632
lfingers 7.12502
lthumb -2.537456984292903 49.60097950935838
rclavicle -2.027333788020928e-15 -7.122931424011466e-16
rhumerus -28.904515831295004 -20.985432299027917 -75.72111671309077
rradius 21.163573308417376
rwrist 6.578437132950369
rhand -17.590031422858228 22.047204699499385
rfingers 7.12502
rthumb 8.077472398355678 -7.739644003622533
173
root 0.4483224650814737 17.742931350041633 64.47963974881279 -0.956411141179176 -0.044687949375984914 -2.269295872869646
lfemur -13.632437020221639 -2.606164194530632 -17.45383814827776
ltibia 31.402891447472808
lfoot 2.045250297718569 0.7868879679998462
ltoes -5.521568978208214
rfemur -15.501830586081802 3.2712946633127196 25.608193815661338
rtibia 40.419982723428554
rfoot -8.86860104264 -9.432792841005547
rtoes 3.109262899222707
lowerback 10.621302977170423 -0.16797518761035848 1.6873698482575779
upperback -0.417346919281527 0.10807245725002318 2.0372284894886326
thorax -6.021584338599915 -0.03143751602856221 1.1406811136746646
lowerneck -16.092706842062658 -3.142913657605452 -3.4212925706527852
upperneck 22.096425690329394 -3.8872655727835177 1.7711853137924887
head 9.680316460910712 -1.8665287269121131 0.7346632744073933
lclavicle -2.024746403951294e-15 -7.106571856975499e-16
lhumerus -30.78641545390695 0.08034561147060515 80.73582697979226
lradius 30.17350645256179
lwrist 6.771895641398209
lhand -29.351612926558534 19.50762292418944
lfingers 7.12502
lthumb -2.36675327425144 49.62729038779451
rclavicle -2.0272412714765413e-15 -7.122340717130317e-16
rhumerus -28.963786618673122 -20.920513021837188 -75.70683871107897
rradius 21.09375994895094
rwrist 6.640159438432892
rhand -17.56498497009359 22.022892615855355
rfingers 7.12502
rthumb 8.121737658185156 -7.724924454216838
174
root 0.443131576140623 17.718690607505533 64.34734212316167 -0.9595446878754712 -0.12478107373412245 -2.264784699849745
lfemur -14.144055369379663 -2.684065017817629 -17.53953549202211
ltibia 30.364518337754422
lfoot 0.9645761288929293 1.1639197286777314
ltoes -6.322354924767081
rfemur -15.905165516006388 3.011607709545024 25.542028493059167
rtibia 40.63895311298852
rfoot -8.108421180585484 -9.136756246644909
rtoes 2.940367882321021
lowerback 10.67128351431807 -0.12903946609696618 1.730664392142759
upperback -0.4294937829203015 0.1644946625420638 2.01237684646732
thorax -6.060189271836929 -0.006050418484602832 1.0888383739540655
lowerneck -16.08722299445197 -3.1502203421573785 -3.421075941027576
upperneck 22.079228378184563 -3.902858313036532 1.807203984069135
head 9.670948028509232 -1.8705316692882459 0.7515034563964258
lclavicle -2.0245359797829184e-15 -7.10521860593826e-16
lhumerus -31.115245912480013 0.06281796785835603 80.67318193769476
lradius 30.469006928342484
lwrist 6.9404052275169015
lhand -29.33940039963318 19.3863494984797
lfingers 7.12502
lthumb -2.3652228776204844 49.57406924527773
rclavicle -2.0272665152969925e-15 -7.122501929124333e-16
rhumerus -29.03990465238449 -20.78043109483388 -75.7519350018768
rradius 21.060570238254986
rwrist 6.595018692953653
rhand -17.56895196287228 21.989624326714186
rfingers 7.12502
rthumb 8.166176937258218 -7.706182019273199
175
root 0.4384691871782383 17.707881663516655 64.27150324371807 -0.9538033168235824 -0.18722761767767773 -2.2477135296517745
lfemur -14.496722177134906 -2.832447664940755 -17.62669338847932
ltibia 29.259763213148226
lfoot 0.10698912395235105 1.617860669680974
ltoes -6.725393361173107
rfemur -16.375377558032717 2.8140776558389162 25.447163809395583
rtibia 40.70374943243801
rfoot -7.109005695648402 -9.00372752353094
rtoes 2.818892939866673
lowerback 10.738431082846425 -0.10025469561572051 1.7445829130979629
upperback -0.473837846455906 0.21611319990956107 2.0058484715568503
thorax -6.124662135420967 0.019776066628305805 1.0522600025443494
lowerneck -16.089109588744638 -3.1563644595704665 -3.4225969509306813
upperneck 22.057348385399578 -3.9202294022657895 1.8365260186131191
head 9.660658033239075 -1.8759229349047735 0.7661096838672261
lclavicle -2.0245086018661788e-15 -7.105036510849269e-16
lhumerus -31.52713752378681 0.1851527277952698 80.58819651562231
lradius 30.632515119430394
lwrist 7.009461707450105
lhand -29.38509663886516 19.34127741492916
lfingers 7.12502
lthumb -2.400478826275379 49.60966257372827
rclavicle -2.0272261810486256e-15 -7.122244344767853e-16
rhumerus -29.11527172783483 -20.687314008530496 -75.77244282644415
rradius 21.034621004520293
rwrist 6.667310682574526
rhand -17.589929135328468 21.946158951604147
rfingers 7.12502
rthumb 8.18263774137024 -7.762752973782861
176
root 0.43221447616679054 17.68830201894183 64.21298380637526 -1.0022277450940047 -0.20773128835618287 -2.398804441647563
lfemur -14.692171438350908 -2.9492835165915294 -17.572237510110963
ltibia 28.235500864703493
lfoot -1.0277518089112148 1.820207306349075
ltoes -6.96422015792752
rfemur -16.926122605699902 2.456169871749679 25.516284505374717
rtibia 40.857776677762544
rfoot -6.145548144376057 -9.21356272513826
rtoes 2.9540251561042097
lowerback 10.84123675975942 -0.10716011511574922 1.9136193540308821
upperback -0.4917578060100901 0.23102497800723154 2.0308213416392764
thorax -6.191308225096567 0.027253679662671615 1.0105843026977155
lowerneck -16.08839118507152 -3.160614846038731 -3.429255787862483
upperneck 22.027698850249728 -3.926365402540429 1.8540817310218238
head 9.648261094879095 -1.8755705055324965 0.778280170816053
lclavicle -2.0243492023674457e-15 -7.104024052858446e-16
lhumerus -32.01873586782425 0.3721968924891641 80.54849130745689
lradius 30.61658058032585
lwrist 7.084038048551457
lhand -29.42302746090626 19.205099831551955
lfingers 7.12502
lthumb -2.411998748186991 49.59040959375021
rclavicle -2.0271824671184334e-15 -7.121965095442632e-16
rhumerus -29.225948983928475 -20.79486793491427 -75.7326714008432
rradius 20.931111207812773
rwrist 6.895644985716686
rhand -17.582987605065377 21.90179975951285
rfingers 7.12502
rthumb 8.204576575041463 -7.718549843618134
